<svg id="Capa_1" data-name="Capa 1" xmlns="http://www.w3.org/2000/svg" viewBox="0 0 254.96 255.43"><defs><style>.cls-1{fill:#a11477;}</style></defs><title>behance</title><path class="cls-1" d="M254.85,132.81c-3.61,73.37-64.11,125.37-131.72,122.51C47.13,252.12-2,189.76.06,124.64,2.56,47.38,66.21-2.61,131.8.11,207.77,3.25,257.53,66.79,254.85,132.81ZM34.53,184.39c21.28,0,42,.91,62.54-.25,22.28-1.25,33-12.72,34.05-33.44.81-15.75-5.21-25.22-19.13-29.55,8.83-3,13.77-8.84,14.84-17.88,2.29-19.34-9.69-33.92-29.21-34.4-20.49-.51-41-.2-61.49-.23a6.07,6.07,0,0,0-1.6.5Zm126.42-36h59.42c.92-14.82-.6-28.47-10.87-39.27-11.3-11.89-25.89-12.73-40.86-9.92-32.15,6-41.2,48.28-25,71.67,14.87,21.41,55.29,19.23,68.09,5.83a26.84,26.84,0,0,0,7.71-20.46H199.93c-4,10.29-12.37,14.21-24.47,11.66-9.81-2-15.09-8.9-14.47-19.47Zm-5.35-59h47V75.9h-47Z"/><path class="cls-1" d="M61,132.8c11.27,0,22.1-.23,32.92.08,8.09.23,12.79,6.55,12.64,16.07-.14,9.18-4.59,14.56-12.74,14.73-10.81.22-21.63.06-32.82.06Z"/><path class="cls-1" d="M60.9,114.72V89.32c11.53,0,22.81-.2,34.07.19,2,.07,4.7,2.2,5.71,4.1a17.83,17.83,0,0,1-.2,17.23c-.92,1.76-3.53,3.65-5.42,3.71C83.79,114.89,72.5,114.72,60.9,114.72Z"/><path class="cls-1" d="M198,132.54H160.82c1.42-10.78,9.63-17.79,20.27-17.51C191.19,115.29,196.91,121.08,198,132.54Z"/></svg>