<svg id="Capa_1" data-name="Capa 1" xmlns="http://www.w3.org/2000/svg" viewBox="0 0 256.05 252.01"><defs><style>.cls-1{fill:#a11477;}</style></defs><title>github</title><path class="cls-1" d="M151.88,186.64c6.85-1.58,13.47-2.73,19.86-4.65,21.24-6.4,33.1-21.12,36.7-42.71,1.81-10.89,2.37-21.83-.9-32.62a45.69,45.69,0,0,0-9.08-16.76,4.24,4.24,0,0,1-1-4.59c3.06-10.11,2.09-20.11-1.44-29.9a3.81,3.81,0,0,0-3-2.1c-4.29.61-8.78,1-12.7,2.69-6.24,2.63-12,6.26-18.11,9.3a7.13,7.13,0,0,1-4.44.75,126.22,126.22,0,0,0-59.18,0,6.88,6.88,0,0,1-4.7-.78C85.35,60,76.75,55,66.67,53.43c-5.45-.85-6-.55-7.54,4.67C56.46,67.37,56,76.68,58.8,86a3.7,3.7,0,0,1-.52,3c-11.5,13.66-13.47,29.58-11.2,46.53,1.44,10.83,4.57,21,11.48,29.75,8.75,11,20.76,16.26,34.11,19,3.73.78,7.51,1.3,11.63,2A30.77,30.77,0,0,0,96.75,202a3.74,3.74,0,0,1-2.07,2.2c-14.2,6.1-26.95,2-35.21-11.22-4.27-6.82-9.9-11.84-18.08-13.27a12.77,12.77,0,0,0-4.81.17c-3.27.7-3.69,2.41-1.28,4.84a13.91,13.91,0,0,0,2.83,2.3,29.24,29.24,0,0,1,13.31,16.17c5,14.93,19.58,21.36,35.23,19.85,3-.29,6-.72,9.46-1.15,0,8.37.21,16.49-.09,24.59-.16,4.53-4.45,6.61-9.4,4.93a116.05,116.05,0,0,1-31.13-15.79C17.57,208.13-1.23,170.77.06,124,1.72,63.81,46.36,12.7,105.56,2c68.84-12.39,135,33.43,148.16,102.62,12,63-23.43,125.21-83.34,146.41q-10.73,3.8-10.66-7.63c.05-10.68.09-21.36.18-32C160,202.24,158.49,193.58,151.88,186.64Z" transform="translate(0 0)"/></svg>