<svg id="Capa_1" data-name="Capa 1" xmlns="http://www.w3.org/2000/svg" viewBox="0 0 266.13 267.36"><defs><style>.cls-1{fill:#a11477;}</style></defs><title>linkedin</title><path class="cls-1" d="M266,134.19c.83,71.79-59.64,135.32-137.52,133.11A133.7,133.7,0,0,1,136.54,0C209.49,2.06,267.18,63.09,266,134.19Zm-59.3,64V187.35c-.18-19,.35-38-.8-56.91-.85-14.06-8.37-24.51-22.79-28.2-14.11-3.62-26.7-.89-36.68,10.47l-2.71,3.06V103.61H116.25V198h27.59v-5.66c0-16-.17-32,.19-48,.22-10.2,7-17,16.41-17.27,10-.34,16.09,4.64,16.65,15.67.83,16.44.51,32.94.68,49.41v5.92ZM96.55,103.63H68.06V198H96.55Zm-31.71-30C64.9,83.14,73,91.27,82.28,91.13c9.08-.13,17.08-8.36,17-17.5a17.24,17.24,0,0,0-34.43-1.71C64.82,72.48,64.82,73,64.84,73.58Z" transform="translate(0.1)"/></svg>