<svg width="160" height="116" viewBox="0 0 160 116" fill="none" xmlns="http://www.w3.org/2000/svg">
<path d="M53.7806 115.158C55.7886 112.62 57.7319 110.038 59.5969 107.408C67.4957 96.2625 74.0893 84.3207 79.311 71.8256C79.9238 70.3732 80.5093 68.9065 81.0847 67.4258C81.3883 66.6634 81.675 65.8834 81.965 65.1138C82.5595 63.5301 83.1335 61.9357 83.6732 60.3407C85.291 55.6072 86.7066 50.8113 87.9477 45.95C91.31 47.5197 94.6116 49.2053 97.8556 51.0173C99.0191 51.6528 100.168 52.3155 101.307 52.9987C102.831 53.8925 104.344 54.824 105.829 55.7756C106.429 56.1419 107.007 56.5319 107.59 56.9151C110.281 55.4645 112.89 53.9365 115.426 52.3176C128.783 43.8053 139.994 33.0299 148.803 20.7618C151.025 17.6659 153.1 14.4845 155.004 11.2137C155.541 10.3041 156.065 9.38745 156.565 8.46685C157.663 6.4863 158.703 4.46674 159.678 2.42183C157.442 2.04149 155.194 1.71606 152.937 1.47315C151.93 1.354 150.915 1.24849 149.903 1.1706C146.091 0.825618 142.254 0.676539 138.411 0.70647C123.296 0.796695 108.019 3.72247 93.3437 9.70165C90.5795 10.827 87.8338 12.0665 85.1243 13.403C85.1106 14.1434 85.0725 14.8971 85.038 15.6441C84.9613 17.3685 84.8433 19.0888 84.7117 20.8018C84.601 22.126 84.4698 23.4395 84.3351 24.7598C83.9426 28.466 83.4089 32.1592 82.7518 35.8224C78.0428 34.0168 73.2719 32.3961 68.4526 30.9674C66.8348 30.4852 65.2027 30.0303 63.5667 29.5995C62.7745 29.3845 61.9684 29.1796 61.1759 28.9819C59.7044 28.6024 58.2323 28.2574 56.753 27.9259C43.474 24.9266 29.8372 23.3915 16.0959 23.4012C12.8665 23.4049 9.63547 23.4948 6.40644 23.6639C9.06373 26.0814 11.6434 28.5972 14.1314 31.2216C19.2597 36.6283 24.0318 42.4657 28.379 48.7325C25.384 51.5277 22.535 54.4428 19.815 57.4604C17.3731 60.1628 15.0434 62.9501 12.8262 65.8049C9.97321 69.4917 7.30065 73.299 4.82607 77.21C3.23211 79.722 1.71976 82.294 0.286071 84.8986C3.19904 85.2333 6.12757 85.4718 9.06811 85.621C13.7059 85.8681 18.3583 85.8881 23.0285 85.6913C26.3947 85.5593 29.7703 85.293 33.1377 84.9095C37.4512 84.4304 41.7477 83.7511 46.0377 82.8685C48.6415 90.039 50.6642 97.3224 52.1002 104.646C52.7902 108.146 53.3525 111.657 53.7806 115.158ZM33.7375 43.9326C30.5468 39.4276 27.1175 35.1455 23.4875 31.0972C31.6742 31.2122 39.8143 31.9809 47.8292 33.3708C42.8748 36.635 38.174 40.1624 33.7375 43.9326ZM89.6238 38.6304C90.7461 33.2984 91.635 27.9136 92.2869 22.483C92.4482 21.0289 92.6096 19.5747 92.7436 18.1063C106.311 13.8766 120.084 11.0668 133.879 9.62508C135.433 9.46528 136.983 9.31232 138.543 9.19054C141.074 8.97706 143.586 8.8149 146.111 8.69433C146.628 8.66976 147.149 8.63838 147.667 8.61381C147.324 9.05167 146.978 9.49636 146.636 9.93422C145.259 11.6993 143.848 13.4293 142.417 15.1486C141.265 16.5355 140.081 17.915 138.881 19.277C129.727 29.6954 119.482 39.3076 108.19 47.9282C106.915 47.1908 105.636 46.4773 104.349 45.7776C99.5481 43.1848 94.6293 40.7999 89.6238 38.6304ZM74.5106 65.0954C69.5454 67.4499 64.4969 69.4653 59.3993 71.1593C56.3649 72.1693 53.3019 73.0512 50.234 73.8263C47.855 74.432 45.4741 74.9584 43.0909 75.4227C37.38 76.5435 31.6456 77.2607 25.9179 77.6164C21.8981 77.8669 17.8786 77.9175 13.8759 77.8032C16.0881 74.4763 18.4608 71.2247 20.9796 68.0931C24.5811 63.6249 28.4788 59.3552 32.6887 55.3534C34.4464 53.6748 36.2516 52.0385 38.1216 50.4447C40.524 48.3823 43.0214 46.4043 45.5965 44.5105C49.8837 41.3576 54.4115 38.4263 59.1448 35.7504C66.6921 37.6343 74.0983 40.0701 81.2847 43.0254C79.5707 50.5337 77.2973 57.9142 74.5106 65.0954ZM57.6202 97.0798C56.402 91.765 54.8868 86.4859 53.0602 81.2698C58.7115 79.8309 64.3142 78.0364 69.8547 75.8788C66.3446 83.2288 62.2636 90.3233 57.6202 97.0798Z" fill="url(#paint0_linear_24_37)"/>
<defs>
<linearGradient id="paint0_linear_24_37" x1="13.5589" y1="9.99045" x2="125.182" y2="68.451" gradientUnits="userSpaceOnUse">
<stop offset="0.0363" stop-color="#A11477"/>
<stop offset="1" stop-color="#FF6F4B"/>
</linearGradient>
</defs>
</svg>
