<svg id="Capa_1" data-name="Capa 1" xmlns="http://www.w3.org/2000/svg" viewBox="0 0 419.7 413.1"><defs><style>.cls-1{fill:#a11477;}</style></defs><title>github</title><path class="cls-1" d="M249,305.91c11.21-2.59,22.07-4.48,32.54-7.63,34.82-10.48,54.27-34.62,60.16-70,3-17.85,3.89-35.78-1.47-53.47a74.92,74.92,0,0,0-14.89-27.46c-2.08-2.42-2.62-4.38-1.66-7.53,5-16.57,3.42-33-2.37-49-.58-1.61-3.42-3.66-4.93-3.45-7,1-14.39,1.7-20.83,4.42C285.31,96.08,275.79,102,265.84,107a11.69,11.69,0,0,1-7.27,1.24,206.81,206.81,0,0,0-97-.09,11.23,11.23,0,0,1-7.7-1.27c-14-8.59-28.05-16.72-44.58-19.32-8.93-1.41-9.89-.91-12.35,7.64-4.38,15.2-5.15,30.45-.55,45.81a6.06,6.06,0,0,1-.85,4.86c-18.85,22.39-22.07,48.48-18.36,76.27,2.37,17.76,7.49,34.49,18.82,48.77,14.34,18.07,34,26.66,55.92,31.23,6.1,1.27,12.3,2.13,19.05,3.28-7,7.61-10.55,16.24-12.36,25.74-.27,1.39-2,3-3.39,3.59-23.29,10-44.19,3.29-57.73-18.38-7-11.19-16.22-19.41-29.64-21.76a20.9,20.9,0,0,0-7.88.28c-5.36,1.14-6,4-2.1,7.93a23.36,23.36,0,0,0,4.64,3.77A48,48,0,0,1,84.33,333.1c8.13,24.47,32.09,35,57.74,32.54,4.93-.47,9.83-1.19,15.5-1.89,0,13.72.36,27-.14,40.31-.27,7.43-7.3,10.84-15.41,8.09a190,190,0,0,1-51-25.9C28.8,341.14-2,279.89.1,203.21,2.82,104.56,76,20.78,173,3.31,285.88-17,394.33,58.12,415.9,171.52c19.64,103.28-38.4,205.25-136.61,240q-17.6,6.23-17.48-12.51.12-26.25.29-52.5C262.22,331.48,259.8,317.29,249,305.91Z" transform="translate(0 0)"/></svg>