<svg id="Capa_1" data-name="Capa 1" xmlns="http://www.w3.org/2000/svg" viewBox="0 0 413.1 413.09"><defs><style>.cls-1{fill:#a11477;}</style></defs><title>rocket</title><path class="cls-1" d="M235.29,162.74a25.14,25.14,0,1,0,25.32,25.41C260.68,173.78,249.75,162.82,235.29,162.74Z" transform="translate(-3.3 0)"/><path class="cls-1" d="M209.85,0C95.78,0,3.3,92.47,3.3,206.55S95.78,413.09,209.85,413.09,416.4,320.62,416.4,206.55,323.92,0,209.85,0Zm89.72,206.55c-12,17.43-26.08,33-41.06,47.82a13.33,13.33,0,0,0-3.6,7.5c-1.1,10.54-1.53,21.15-2.54,31.7a15.56,15.56,0,0,1-2.81,7.54c-14.8,19.69-29.81,39.21-44.73,58.81-2,2.6-4.06,4.82-7.71,3.81s-4.33-4-4.61-7.24c-1.54-17.55-3.06-35.1-4.82-52.62a11.64,11.64,0,0,0-2.88-6.31c-4.71-5.15-9.79-10-15.2-15.37-4.93,15.05-14.51,24.26-28.3,29.56-11.72,4.51-23.25,9.5-34.86,14.27-3,1.21-5.93,2.17-8.59-.63s-1.7-5.61-.46-8.62c5.1-12.36,10.12-24.75,15.18-37.13,5.25-12.85,14.72-21.21,28.57-26-6.2-6.16-11.88-11.91-17.74-17.46-.91-.86-2.69-1-4.09-1.12q-26.07-2.42-52.15-4.69c-3.59-.31-7-.81-8.19-4.82s1.64-5.92,4.31-8c19.6-14.92,39.14-29.9,58.82-44.72a13.78,13.78,0,0,1,6.68-2.46c11-1.06,22.12-1.63,33.15-2.81a13.29,13.29,0,0,0,7.51-3.48c18.7-18.81,38.59-36.09,61.64-49.45,28.15-16.31,58.3-24.08,90.9-21.55,6.25.49,7.61,1.8,8.14,8C333.46,140.22,321.36,174.8,299.57,206.55Z" transform="translate(-3.3 0)"/></svg>