<svg id="Capa_1" data-name="Capa 1" xmlns="http://www.w3.org/2000/svg" viewBox="0 0 251.2 251.2"><defs><style>.cls-1{fill:#449a44;}.cls-2{fill:#46a347;}.cls-3{fill:#51a94c;}.cls-4{fill:#419243;}.cls-5{fill:#5cae4f;}.cls-6{fill:#adaf95;}.cls-7{fill:none;}</style></defs><title>css</title><path class="cls-1" d="M127.16,3.71c5.79,7.17,11.47,14.45,17.41,21.5C174.11,60.28,189,99.64,180.06,146l-51.47,7.5-1.84-42.83c.55-4.26,1.59-8.52,1.55-12.77C128,66.49,127.57,35.1,127.16,3.71Z"/><path class="cls-2" d="M120.89,219.06C73.56,183.83,56,127.32,77.91,69.48c2.42,4.14,5.56,8,7.16,12.47,13.55,37.68,26.82,75.46,40.18,113.21Q123.06,207.1,120.89,219.06Z"/><path class="cls-3" d="M125.25,195.16C111.89,157.41,98.62,119.63,85.07,82c-1.6-4.44-4.74-8.33-7.16-12.47l18.53-36c6.75,19.08,13.26,38.25,20.36,57.19,2.6,6.93,6.59,13.33,10,20q.93,21.42,1.84,42.83-1.14,20.79-2.3,41.58A9.12,9.12,0,0,0,125.25,195.16Z"/><path class="cls-4" d="M126.29,195.07q1.15-20.79,2.3-41.58l51.47-7.5q-8.48,44.31-44.77,71.08C126.84,212,128.27,202.82,126.29,195.07Z"/><path class="cls-5" d="M126.75,110.66c-3.36-6.64-7.35-13-10-20-7.1-18.94-13.61-38.11-20.36-57.19L125.31,0l1.85,3.71c.41,31.39.88,62.78,1.14,94.18C128.34,102.14,127.3,106.4,126.75,110.66Z"/><path class="cls-6" d="M126.29,195.07c2,7.75.55,16.9,9,22l-5.66,34.13c-1.79-2.61-4.45-4.91-5-7.64-1.68-8.08-2.54-16.32-3.72-24.5q2.17-12,4.36-23.9A9.12,9.12,0,0,1,126.29,195.07Z"/><rect class="cls-7" width="251.2" height="251.2"/></svg>