<svg id="Capa_1" data-name="Capa 1" xmlns="http://www.w3.org/2000/svg" viewBox="0 0 251.2 251.2"><defs><style>.cls-1{fill:#f14e1e;}.cls-2{fill:#a159fe;}.cls-3{fill:#fe7262;}.cls-4{fill:#0ace82;}.cls-5{fill:#1abbfd;}.cls-6{fill:#bb4c38;}.cls-7{fill:#502e80;}.cls-8{fill:#97407a;}.cls-9{fill:#6c51b7;}.cls-10{fill:#3b65b1;}.cls-11{fill:#307596;}.cls-12{fill:#542722;}</style></defs><title>Mesa de trabajo 2 copia 2</title><path class="cls-1" d="M86.06,2.08h44.71V84c0,.23,0,.46,0,.69,0,0,0,0,0,0l-.79,0H87.83c-2-.23-4-.38-6-.7a36.8,36.8,0,0,1-9.43-3,41.15,41.15,0,0,1-9.34-5.9,42,42,0,0,1-6.15-6.36,40.9,40.9,0,0,1-6.47-11.91,39.92,39.92,0,0,1-2.06-9.72,1.25,1.25,0,0,0-.18-.41V40a1.51,1.51,0,0,0,.19-.35c.28-1.82.45-3.67.85-5.46a39.91,39.91,0,0,1,3.83-10.22,38.7,38.7,0,0,1,6.62-9.07,55.05,55.05,0,0,1,4.53-4.11,38.18,38.18,0,0,1,8.07-4.91,42.37,42.37,0,0,1,6.88-2.45,40.64,40.64,0,0,1,6.57-1.12C85.85,2.25,86,2.14,86.06,2.08Z"/><path class="cls-2" d="M130.71,84.68s0,0,0,0h.09c0,.16,0,.33,0,.49v37.54l0,1.71v3.17l0,1.71v37.33c0,.23,0,.46,0,.69h0c-.23,0-.45-.07-.68-.07H87.93c-.7,0-1.41,0-2.11-.11a39.14,39.14,0,0,1-9.69-2.07,41,41,0,0,1-22.8-19.18,39.16,39.16,0,0,1-4.42-12.36c-.23-1.24-.35-2.5-.52-3.74,0-.11-.13-.21-.19-.32v-6.94c.06-.1.17-.2.19-.31.23-1.53.39-3.07.69-4.58a40,40,0,0,1,5-12.89,40.63,40.63,0,0,1,7.42-9.1,41.06,41.06,0,0,1,15.59-9,40.13,40.13,0,0,1,10.76-1.85c.1,0,.2,0,.3,0h41.95A3.83,3.83,0,0,0,130.71,84.68Z"/><path class="cls-3" d="M213.44,40.14v6.25a.37.37,0,0,0-.14,0,1.4,1.4,0,0,0-.06.28c-.18,1.45-.27,2.92-.54,4.36a40.25,40.25,0,0,1-10.35,20.47,40.69,40.69,0,0,1-27.08,13.07c-.4,0-.79.11-1.19.17h-.58a1.92,1.92,0,0,0-.4-.09l-2.93,0H130.86c0-.25,0-.5,0-.75V2.08h44.7l0,0s0,0,0,0c.38.07.76.16,1.15.21,1.39.22,2.81.32,4.17.64q21.24,5.09,29.7,25.25a37.93,37.93,0,0,1,2.72,11.51A1,1,0,0,0,213.44,40.14Z"/><path class="cls-4" d="M130.78,167.29h0a5.67,5.67,0,0,1,0,.58q0,20.07,0,40.14A41.38,41.38,0,0,1,96.43,249.3c-1,.17-2,.26-2.94.4-.1,0-.19.12-.29.19H86.06a1.15,1.15,0,0,0-.37-.18A36.83,36.83,0,0,1,77.12,248q-19.56-6.58-26.67-26a38,38,0,0,1-2.05-9.38,1.4,1.4,0,0,0-.2-.38V205c.06-.09.18-.18.19-.29.22-1.44.36-2.9.66-4.33A41.39,41.39,0,0,1,88,167.3h42.39Z"/><path class="cls-5" d="M173.5,84.74h.58c.69,0,1.37.07,2.06.14a38.17,38.17,0,0,1,8.53,1.77q22.32,7.8,27.85,30.82c.38,1.59.49,3.26.74,4.89a1,1,0,0,0,.18.36v6.15c-.07.07-.19.14-.19.23-1.61,16.44-10.1,28-25,34.9a34.35,34.35,0,0,1-8.05,2.51,41.37,41.37,0,0,1-48.11-30.31c-.47-1.79-.7-3.64-1-5.47-.09-.53-.1-1.08-.15-1.61l-.09-1.53v-3.19l.09-1.53a14.38,14.38,0,0,1,.15-1.61,62,62,0,0,1,1.19-6.1c3.84-13.22,12.18-22.44,24.91-27.67a39.74,39.74,0,0,1,11.59-2.67l1.33-.07Z"/><path class="cls-6" d="M130.87,2.08V83.91c0,.25,0,.5,0,.75h-.11c0-.23,0-.46,0-.69V2.08Z"/><path class="cls-7" d="M130.85,127.58l.09,1.53-.12.17,0-1.71Z"/><path class="cls-8" d="M87.88,84.73a.56.56,0,0,1,0-.08h42.09l.79,0a3.83,3.83,0,0,1-.58.07H88.18C88.08,84.76,88,84.74,87.88,84.73Z"/><path class="cls-9" d="M88,167.3a.25.25,0,0,0,0-.07H130.1c.23,0,.45.05.68.07l-.44,0H88Z"/><path class="cls-10" d="M130.85,127.58h-.07V124.4h.07Z"/><path class="cls-7" d="M130.85,124.39h-.07l0-1.71.12.17Z"/><path class="cls-11" d="M173.5,84.74h-3.39l.06-.07,2.93,0A1.92,1.92,0,0,1,173.5,84.74Z"/><path class="cls-12" d="M170.17,84.67l-.06.07-1.33.07-.25-.13Z"/></svg>