<svg id="Capa_1" data-name="Capa 1" xmlns="http://www.w3.org/2000/svg" viewBox="0 0 251.2 251.2"><defs><style>.cls-1{fill:#ee4f33;}</style></defs><title>Mesa de trabajo 2</title><path class="cls-1" d="M0,131.17v-11.8c.05.09.1.19.16.28a1.12,1.12,0,0,0,.2.17c1.82-2.4,3.4-5,5.51-7.17Q41.6,76.76,77.47,41c.76-.75,1.56-1.47,2.29-2.16.35.15.59.18.73.32C89.4,48,98.33,56.85,107.13,65.82a4.31,4.31,0,0,1,.55,3.42c-2.13,8.83,1.09,17.3,8.72,21.74a4.28,4.28,0,0,1,2.47,4.33q-.12,31.31,0,62.62a5.08,5.08,0,0,1-2.88,5.13,18.72,18.72,0,0,0-8.32,21.27,19,19,0,0,0,17.55,13.85c9,.19,16.36-4.85,19.08-13.08a18.75,18.75,0,0,0-7.38-21.62c-2-1.29-2.41-2.65-2.41-4.79q.09-30.65,0-61.3V93.56c1.36,1.26,2.16,2,2.9,2.69,6.88,6.87,13.7,13.8,20.67,20.59,1.81,1.76,2.41,3.21,1.72,5.86-3.08,11.79,6.93,24,19,23.4a19.35,19.35,0,0,0,18.57-21.68c-1.24-10.85-11.65-18.34-22.79-16.19a4.67,4.67,0,0,1-4.8-1.57Q158.1,94.73,146.18,83a4.26,4.26,0,0,1-1.4-4.51c2.41-12-6.46-23.69-18.39-22.71-6.45.52-9.65-2.22-13.35-6C106.58,43.07,99.93,36.58,93.37,30c-.76-.75-1.47-1.56-2.44-2.6,5.91-5.87,11.61-11.74,17.55-17.35,3.46-3.27,7.31-6.12,11-9.19.13-.1,0-.56-.06-.86h11.8a2.53,2.53,0,0,0-.27.18,1,1,0,0,0-.13.2c2.65,2.05,5.57,3.82,7.92,6.16q53.1,52.94,106,106c2,2,3.4,4.49,5.14,6.7.29.37.88.51,1.33.75v11.15a3.7,3.7,0,0,0-.46-.31s-.17.12-.24.2c-3.51,4.26-6.71,8.82-10.59,12.72q-49.44,49.69-99.14,99.14c-2.81,2.8-6.29,4.93-9.43,7.4-.18.14-.12.58-.17.88H120a2.69,2.69,0,0,0,.29-.16.77.77,0,0,0,.17-.19,58.87,58.87,0,0,1-6.22-4.57c-5.53-5.27-10.9-10.7-16.31-16.1Q52.8,185,7.7,139.84c-2.5-2.51-4.41-5.6-6.64-8.39C.88,131.22.36,131.26,0,131.17Z"/></svg>