<svg id="Capa_1" data-name="Capa 1" xmlns="http://www.w3.org/2000/svg" viewBox="0 0 251.2 248.46"><defs><style>.cls-1{fill:#005f87;}.cls-2{fill:#005d84;}.cls-3{fill:#004a69;}</style></defs><title>js</title><path class="cls-1" d="M18.07,0c.56.46,1.06,1.19,1.7,1.34a69.71,69.71,0,0,1,28,13.89,13.08,13.08,0,0,0,6,2.38c4.46.71,9,.75,13.49,1.49,17.07,2.82,30.29,13.09,43.52,23.12,17.08,13,30.49,29.2,41.36,47.58,2.07,3.5,3.5,7.39,5.22,11.1q11,23.8,22,47.61a11.7,11.7,0,0,0,7.2,6.34c18.66,6.72,34.24,18.35,48.82,31.43,2.68,2.41,4.68,5.59,7,8.42,1.39,1.71.58,2.62-1.22,3-6.17,1.24-12.36,2.36-18.52,3.65-5.27,1.11-10.5,2.39-16.66,3.8,1.73,2.09,2.78,4,4.33,5.13a127.14,127.14,0,0,0,10.72,7.22,81.46,81.46,0,0,1,21.68,18.87c2.8,3.51,5.46,7.12,8.17,10.71a6.17,6.17,0,0,1,.41,1.4,12.91,12.91,0,0,1-2.07-1.23,105,105,0,0,0-27.81-17.85c-9.55-4.35-18.23-10.08-24.63-18.63-1.64-2.19-2.65-4.83-4.13-7.15-1.65-2.58-.4-3.9,1.87-4.78,9.36-3.62,19-6,29.08-6.06h7.54l.49-.86a31.56,31.56,0,0,0-4-3.93c-8-5.54-15.83-11.45-24.27-16.24-5.9-3.33-12.57-5.54-19.13-7.39-7-2-12.07-5.62-15.09-12.26-7-15.3-14.41-30.4-21-45.88a145.31,145.31,0,0,0-24.06-38C112.67,55,99.12,44.44,84,35.72c-10.77-6.23-22.34-8.85-34.56-9.09a11.86,11.86,0,0,1-7.7-3.26c-7.33-6.15-15.89-10-24.89-12.9-2.71-.88-5.61-1.27-7.72,1.17s-1.4,5.28-.07,7.81A41.86,41.86,0,0,0,14,27.28a93,93,0,0,1,19.57,37.3,80.47,80.47,0,0,0,6.19,15.7,53,53,0,0,0,7.51,10.43c2.78,3.2,4.16,6.46,2.77,10.61-1,3-2,6.1-3,9.13-6.06,17.85-5.53,35.47,2.09,52.74A20.85,20.85,0,0,0,54,169.78c2.25,2.11,3.57,1.33,4-1.77.61-4.83,1.27-9.65,1.91-14.47,1-7.93,5.2-14.2,11.05-20.29,8.53,22.47,19.6,43.19,35,61.41l-.74.74c-6.74-6.21-13.6-12.31-20.19-18.68-5.35-5.16-8.37-11.89-11.55-18.47-.6-1.23-1.26-2.43-1.89-3.64l-.84.16c-.7,4.54-1.38,9.07-2.1,13.6s-1.58,9.33-6.64,11.44-9.13.18-12.62-3.32c-6.47-6.48-9.86-14.62-11.84-23.37a78.71,78.71,0,0,1,1.12-40c1.29-4.44,2.63-8.88,3.68-13.39a4.43,4.43,0,0,0-1-3.52c-6.81-7-10.4-15.85-13.76-24.75-2.21-5.89-3.79-12-6.06-17.89a50.9,50.9,0,0,0-5.38-10.19C12.58,38.24,8.61,33.46,5,28.44,2.25,24.63.12,20.52,0,15.65A14.07,14.07,0,0,1,9.73,1.39c.65-.24,1.13-.92,1.69-1.39Z" transform="translate(0)"/><path class="cls-2" d="M60.24,59.25,50.86,44.49c5.11-2.48,8.36-.9,11.41,3.64C65,52.14,64.09,56.06,60.24,59.25Z" transform="translate(0)"/><path class="cls-3" d="M105.09,195.4l.74-.74,5.81,5.25-.72.87Z" transform="translate(0)"/></svg>