<svg id="Capa_1" data-name="Capa 1" xmlns="http://www.w3.org/2000/svg" viewBox="0 0 251.2 251.2"><defs><style>.cls-1{fill:#60d9fa;}.cls-2{fill:#61d9fa;}</style></defs><title>Mesa de trabajo 2 copia 4</title><path class="cls-1" d="M181.75,237.34H169c0-.11,0-.3,0-.31-.21-.07-.43-.1-.65-.16-1.72-.48-3.46-.88-5.15-1.45a71.47,71.47,0,0,1-16.61-8.35A140.64,140.64,0,0,1,126.75,211c-.37-.36-.75-.71-1.1-1a2.19,2.19,0,0,0-.28.16c-.52.48-1,1-1.54,1.46a138.5,138.5,0,0,1-19.4,15.58,71.79,71.79,0,0,1-16.52,8.28c-1.76.58-3.58,1-5.37,1.47-.19.06-.68-.12-.47.42H69.33a1.51,1.51,0,0,0,0-.31c-.38-.13-.78-.24-1.17-.35a23,23,0,0,1-6.39-2.88,26,26,0,0,1-9.39-11.1,47.24,47.24,0,0,1-4-16.38A94.33,94.33,0,0,1,49.07,186a153.59,153.59,0,0,1,3.4-17.63,3.26,3.26,0,0,0,.05-.64l-.48-.15a156.88,156.88,0,0,1-16.86-5.83,92.21,92.21,0,0,1-19.64-10.73A43.86,43.86,0,0,1,4.05,139.14a25.5,25.5,0,0,1-4-11.72,24.46,24.46,0,0,1,3.21-13.94,38.38,38.38,0,0,1,8.21-10A75.36,75.36,0,0,1,29,92.28a146.4,146.4,0,0,1,22.55-8.45l1.06-.34c-.15-.59-.26-1.1-.39-1.6a144.66,144.66,0,0,1-3.84-23.21,79.39,79.39,0,0,1,.42-17.5,43.31,43.31,0,0,1,3.58-12.51c3.5-7.37,8.95-12.43,17-14.37a3.33,3.33,0,0,0,.48-.21l-.12-.23H81.62c-.27.17-.11.31.07.35.69.17,1.38.29,2.07.45a59.58,59.58,0,0,1,15.73,6.47,119.76,119.76,0,0,1,20.48,15c1.89,1.69,3.72,3.43,5.65,5.2l1.37-1.3a132.49,132.49,0,0,1,23.11-18,62.75,62.75,0,0,1,16.52-7.19c.89-.23,1.81-.4,2.72-.61.18,0,.55,0,.34-.4H181.3c-.27.2-.06.31.1.35.57.17,1.16.28,1.73.45A24.31,24.31,0,0,1,198,27.13a43.86,43.86,0,0,1,4.68,16.77,88.68,88.68,0,0,1-.25,18.5,142,142,0,0,1-3,17.48c-.28,1.18-.55,2.37-.83,3.62.41.13.76.25,1.11.35a151.28,151.28,0,0,1,20.52,7.51,81.09,81.09,0,0,1,18,10.9,39.62,39.62,0,0,1,9.71,11.27,24.1,24.1,0,0,1,0,24.21,39.29,39.29,0,0,1-9.53,11.13A80.21,80.21,0,0,1,220.16,160a146.37,146.37,0,0,1-20.31,7.42c-.41.12-.82.27-1.26.41l.27,1.19a149.16,149.16,0,0,1,3.73,21.31,83.82,83.82,0,0,1-.28,20.27A41.27,41.27,0,0,1,198,224.24a24.39,24.39,0,0,1-13.88,12.1c-.7.24-1.43.39-2.14.61C181.84,237,181.45,237,181.75,237.34Zm-56.16-71.29c7.19,0,14.36-.28,21.54-.72a2.06,2.06,0,0,0,1.87-.9,316.77,316.77,0,0,0,21.9-38,1.67,1.67,0,0,0,0-1.65q-4.65-9.54-9.93-18.73-5.64-9.84-12-19.23c-.3-.43-.55-.8-1.19-.83-4.06-.18-8.11-.48-12.16-.61A307.76,307.76,0,0,0,103.9,86a2.07,2.07,0,0,0-1.79,1,317.5,317.5,0,0,0-21.75,37.68,2,2,0,0,0,0,2C84.45,135,88.84,143.13,93.68,151c2.74,4.48,5.64,8.85,8.45,13.28a1.63,1.63,0,0,0,1.58,1,5.54,5.54,0,0,1,.56.05C111.37,165.78,118.47,166.1,125.59,166.05Zm70-8.84c.31-.05.45-.07.6-.11a134.82,134.82,0,0,0,21.39-8,66.67,66.67,0,0,0,13.8-8.59,28.5,28.5,0,0,0,7.05-8.14,13.26,13.26,0,0,0,0-13.52,24.88,24.88,0,0,0-4.19-5.49,52.85,52.85,0,0,0-12.33-9,123.6,123.6,0,0,0-25.44-10.12l-.84-.19c-.1.25-.17.42-.23.59a252.65,252.65,0,0,1-11.59,29.94,2.23,2.23,0,0,0,0,2.07,259.76,259.76,0,0,1,11.05,28.24ZM118.09,49a7.76,7.76,0,0,1-1-.62c-1.46-1.33-2.88-2.7-4.35-4A109.25,109.25,0,0,0,94,30.59a48.47,48.47,0,0,0-13.39-5.44,20.28,20.28,0,0,0-8.53-.26,13.43,13.43,0,0,0-9.27,7.25,27.69,27.69,0,0,0-2.68,7.54,65.29,65.29,0,0,0-.81,19.23A126.29,126.29,0,0,0,62,75.55c.38,1.73.81,3.46,1.22,5.23.35,0,.61-.06.86-.12,5.84-1.31,11.73-2.4,17.66-3.22,4.57-.63,9.16-1.16,13.74-1.65a2.5,2.5,0,0,0,2-1.14,255.28,255.28,0,0,1,20-24.78C117.56,49.68,117.72,49.48,118.09,49Zm-.23,153.14c0-.16,0-.21,0-.23l-2.9-3.25A260,260,0,0,1,97.3,176.47a1.92,1.92,0,0,0-1.51-.9c-3.56-.36-7.11-.78-10.65-1.23-6.13-.77-12.21-1.82-18.26-3.09l-3.62-.76c-.08.24-.15.41-.19.58a128.13,128.13,0,0,0-3.94,24.76,59.24,59.24,0,0,0,1,15.78A25.12,25.12,0,0,0,64,221.05a12.86,12.86,0,0,0,8.41,5.42,20.5,20.5,0,0,0,7.65-.2,43.09,43.09,0,0,0,11.09-4,94.55,94.55,0,0,0,17-11.42Q113.22,206.74,117.86,202.18ZM187.93,80.8a6.52,6.52,0,0,0,.21-.63,124.19,124.19,0,0,0,4-27.78,54.64,54.64,0,0,0-1.24-13.19,24.89,24.89,0,0,0-3.73-8.9,13.09,13.09,0,0,0-10.71-5.72,25,25,0,0,0-7.82,1,55.24,55.24,0,0,0-14.32,6.65,125.74,125.74,0,0,0-20.71,16.58,3.39,3.39,0,0,0-.33.42c1.61,1.82,3.21,3.58,4.77,5.38,5.63,6.47,10.89,13.22,15.85,20.21a1.83,1.83,0,0,0,1.42.89c3.33.33,6.67.64,10,1.12,5.41.8,10.8,1.72,16.19,2.63C183.63,79.86,185.73,80.35,187.93,80.8ZM133.2,202.13c2.1,1.92,4.08,3.79,6.12,5.58a103.47,103.47,0,0,0,19.3,13.81,42.66,42.66,0,0,0,13.9,5,18.07,18.07,0,0,0,7.1-.22,13.45,13.45,0,0,0,8.66-7,30.92,30.92,0,0,0,3.28-10.6,72.39,72.39,0,0,0,.18-17.28,130.49,130.49,0,0,0-2.64-16.18c-.34-1.55-.73-3.09-1.12-4.69-.3.05-.52.07-.73.12-5.95,1.31-11.95,2.45-18,3.26-4.57.62-9.15,1.16-13.74,1.68a2.13,2.13,0,0,0-1.7,1,252.94,252.94,0,0,1-20,24.87Zm-77.59-108a2.08,2.08,0,0,0-.37,0,140.21,140.21,0,0,0-19.69,7.13,69.78,69.78,0,0,0-15.81,9.56,28.72,28.72,0,0,0-6.86,7.87,13.33,13.33,0,0,0-.06,13.81,27.41,27.41,0,0,0,5.91,7.09,59.57,59.57,0,0,0,12,8.07,128.74,128.74,0,0,0,24.18,9.41c.21,0,.43,0,.68.09.1-.29.2-.53.27-.77a254.35,254.35,0,0,1,11.56-29.83,2,2,0,0,0,0-1.87A259.68,259.68,0,0,1,57.34,99.43C56.75,97.68,56.19,95.91,55.61,94.14ZM111,74.66c9.85-.43,19.42-.4,29.23,0-4.7-6.2-9.47-12-14.61-17.55C120.44,62.7,115.66,68.47,111,74.66ZM66.21,91.38c2.3,7.29,4.89,14.33,7.91,21.43,4.49-8.69,9.32-16.93,14.39-25,0,0,0-.08,0-.11s0-.05-.12-.14C81,88.48,73.6,89.7,66.21,91.38ZM185,159.87c-2.27-7.22-4.87-14.24-7.89-21.37-4.56,8.75-9.36,17.07-14.57,25.25A195.94,195.94,0,0,0,185,159.87Zm-96.23,3.94c-5.28-8.3-10.09-16.62-14.62-25.33-3,7.13-5.64,14.19-7.89,21.46C73.68,161.6,81.06,162.85,88.73,163.81Zm88.38-51.09c3-7.07,5.61-14.1,7.84-21.28-3.53-1.15-20.61-4-22.26-3.72,2.44,4.08,4.94,8.12,7.32,12.23S174.68,108.33,177.11,112.72Zm-51.52,81.5c5.16-5.61,9.93-11.37,14.61-17.56-9.86.43-19.42.44-29.22,0C115.65,182.82,120.42,188.59,125.59,194.22Z"/><path class="cls-2" d="M125.63,148A22.38,22.38,0,1,1,148,125.62,22.33,22.33,0,0,1,125.63,148Z"/></svg>