<svg id="Capa_1" data-name="Capa 1" xmlns="http://www.w3.org/2000/svg" viewBox="0 0 182.51 117.39"><defs><style>.cls-1{fill:#6c51b7;}</style></defs><title>Mesa de trabajo 3</title><path class="cls-1" d="M30.65,88c-.15.44-.3.85-.43,1.26q-3.66,11.34-7.31,22.68c-.06.19-.1.38-.17.56a1.77,1.77,0,0,1-1.95,1.39c-1.9,0-3.8,0-5.7,0H2.28c-2.37,0-2.67-.41-1.9-2.64L8,89.42Q20.67,53,33.39,16.66A29.74,29.74,0,0,0,35.21,6.57c0-1.3.23-1.53,1.53-1.53H62.48C64,5,64,5.12,64.57,6.6Q74.8,35.17,85,63.76q8.38,23.43,16.78,46.88a9.94,9.94,0,0,1,.49,1.58c.15.75-.14,1.11-.9,1.22a6.27,6.27,0,0,1-1.06,0H80c-1.61,0-1.89-.2-2.41-1.71q-3.89-11.32-7.75-22.65c-.13-.37-.26-.74-.41-1.15ZM63,67.22c-.25-.85-.45-1.57-.67-2.28-3-9.45-6-18.89-9-28.35-1.18-3.77-2.18-7.59-3.28-11.38-.11-.38-.09-.85-.59-1.12-.24,1.07-.47,2.07-.69,3.07-1.22,5.4-3,10.65-4.61,15.93Q40.62,54.75,37,66.38a7.76,7.76,0,0,0-.17.84Z"/><path class="cls-1" d="M130.5,78.58a21.71,21.71,0,0,0,2.28,7.65A16.21,16.21,0,0,0,141.11,94a33.21,33.21,0,0,0,15.16,2.59,76,76,0,0,0,14.62-2.23c1.41-.37,2.77-.89,4.19-1.36.51.34.34.9.34,1.38q0,6.52,0,13.06c0,.71,0,1.42,0,2.13a2.43,2.43,0,0,1-1.73,2.62,54.69,54.69,0,0,1-12.94,3.31,76.27,76.27,0,0,1-17.15.45,41.13,41.13,0,0,1-17.82-5.24,35,35,0,0,1-15.74-19.09,51.61,51.61,0,0,1,1.16-38.43A38.36,38.36,0,0,1,128.63,34a30.89,30.89,0,0,1,10.9-3.42A52.75,52.75,0,0,1,152,30.26c7.88.87,15,3.58,20.59,9.39a34.78,34.78,0,0,1,7.85,13.4,43.75,43.75,0,0,1,2,16.62c-.14,2.4-.34,4.81-.56,7.21-.09,1-.56,1.51-1.45,1.57-2.76.19-5.52.4-8.28.49-1.65,0-3.31-.12-5-.19s-3.08-.16-4.62-.16q-15.24,0-30.49,0Zm0-15.16h22.72c1.62,0,3.24-.06,4.86-.13a6.53,6.53,0,0,0,1.62-.31c1-.3,1-.44,1-1.42a13.78,13.78,0,0,0-9.93-13,16.79,16.79,0,0,0-5-.51A14.33,14.33,0,0,0,133,55.52a18.92,18.92,0,0,0-2.17,5.86C130.68,62,130.6,62.61,130.46,63.42Z"/></svg>