<svg id="Capa_1" data-name="Capa 1" xmlns="http://www.w3.org/2000/svg" viewBox="0 0 182.51 117.39"><defs><style>.cls-1{fill:#d67718;}</style></defs><title>Mesa de trabajo 3 copia</title><path class="cls-1" d="M81.31,91.31H42.7c-.13.38-.28.78-.41,1.18Q38.62,103.83,35,115.17c-.56,1.71-.91,2-2.73,2H14.06c-2,0-2.38-.49-1.71-2.44q5.88-17,11.78-33.94,10.61-30.53,21.21-61A31.5,31.5,0,0,0,47.26,9.14c0-1.24.24-1.49,1.44-1.49q13,0,26,0c1.31,0,1.4.1,1.9,1.49Q88.13,41.78,99.7,74.42l14.14,39.9c.14.41.3.82.4,1.24.29,1.12,0,1.52-1.22,1.57-.19,0-.39,0-.59,0H92c-1.58,0-1.87-.2-2.39-1.74q-4-11.53-8-23.09Zm-6.23-21.2C70.56,55.77,65.85,41.64,61.9,27.27a2.6,2.6,0,0,0-.24-.45c-.15.51-.25.79-.31,1.09-1,4.65-2.3,9.2-3.72,13.73Q53.31,55.44,49,69.25a7.84,7.84,0,0,0-.16.86Z"/><path class="cls-1" d="M125.78,76V37c0-2.47,0-2.49,2.55-2.49h18.38c.32,0,.64,0,.95,0A1.25,1.25,0,0,1,149,35.86c0,.31,0,.63,0,1v78.45c0,2.18-.21,2.38-2.36,2.38H128.18a9.55,9.55,0,0,1-1.07,0,1.34,1.34,0,0,1-1.29-1.3,11.4,11.4,0,0,1,0-1.31Z"/><path class="cls-1" d="M137.42,25.79a11.83,11.83,0,0,1-4.31-.62c-5.56-1.86-8.1-6.46-8.46-11.32A14.47,14.47,0,0,1,125,9.26,12.62,12.62,0,0,1,135.6-.12a16.26,16.26,0,0,1,5.3.18,11.18,11.18,0,0,1,8.51,7,14.09,14.09,0,0,1,0,11.19A12,12,0,0,1,137.42,25.79Z"/></svg>