<svg id="Capa_1" data-name="Capa 1" xmlns="http://www.w3.org/2000/svg" viewBox="0 0 182.51 117.39"><defs><style>.cls-1{fill:#6c51b7;}</style></defs><title>Mesa de trabajo 3 copia 3</title><path class="cls-1" d="M45.65,82.45v32.21c0,.28,0,.55,0,.83,0,1.31-.37,1.67-1.71,1.68H24.72c-1.27,0-1.57-.32-1.61-1.63V10.15c0-.44,0-.88,0-1.31.08-.71.35-1,1.06-1a3.62,3.62,0,0,1,.47,0c8.82-.19,17.63-.44,26.45-.55,4.22,0,8.46,0,12.68.28A47.39,47.39,0,0,1,83.1,12.7,32.75,32.75,0,0,1,99.21,30.64a40.49,40.49,0,0,1,2.26,18,36.83,36.83,0,0,1-3.56,13.56A34.29,34.29,0,0,1,79.23,78.84,52.7,52.7,0,0,1,65.77,82a106.12,106.12,0,0,1-16.34.43C48.22,82.41,47,82.45,45.65,82.45Zm.19-19.61c.8.06,1.46.15,2.13.16l7.59,0a34.71,34.71,0,0,0,7.54-.77,26.43,26.43,0,0,0,7.73-2.56c3.91-2.23,6.78-5.29,7.7-9.86a22.33,22.33,0,0,0,.29-7.9c-.86-5.42-3.64-9.46-8.67-11.79a23.44,23.44,0,0,0-9.27-2.28c-4.74-.11-9.49,0-14.23,0a5.1,5.1,0,0,0-.81.14Z"/><path class="cls-1" d="M138.34,44.84c.85-.75,1.63-1.41,2.38-2.11A36.71,36.71,0,0,1,158.59,33a30.57,30.57,0,0,1,6.48-.64c1.17,0,1.58.39,1.58,1.56q0,10,0,19.94c0,1.05-.29,1.34-1.34,1.39-1.65.08-3.32.06-5,.17A44.35,44.35,0,0,0,145.43,59,17.74,17.74,0,0,0,140.66,62a2.5,2.5,0,0,0-.9,2c0,6.73,0,13.46,0,20.18v30.27c0,.36,0,.71,0,1.07,0,1.48-.33,1.79-1.83,1.79q-9.8,0-19.58,0c-1.71,0-2.06-.35-2.06-2.09,0-19.67,0-39.33,0-59,0-5.94-.28-11.87-.45-17.8,0-1-.18-2-.23-3.08s.22-1.35,1.27-1.36h17.56A2.22,2.22,0,0,1,137,35.91c.5,2.06.82,4.18,1.16,6.28C138.29,43.07,138.28,44,138.34,44.84Z"/></svg>