<svg id="Capa_1" data-name="Capa 1" xmlns="http://www.w3.org/2000/svg" viewBox="0 0 182.51 117.39"><defs><style>.cls-1{fill:#0e8bd8;}</style></defs><title>Mesa de trabajo 3 copia 2</title><path class="cls-1" d="M39.88,80.31v32.33c0,.35,0,.71,0,1.07A1.27,1.27,0,0,1,38.58,115a7.48,7.48,0,0,1-.82,0H19.13c-1.51,0-1.78-.28-1.79-1.81,0-.91,0-1.82,0-2.73V8c0-2.45,0-2.42,2.4-2.47,6.92-.14,13.84-.35,20.75-.47,4.35-.07,8.7-.11,13,0A54.85,54.85,0,0,1,73.8,8.88c9,3.69,15.66,9.74,19.33,18.83a39.58,39.58,0,0,1,2.6,18.16A40,40,0,0,1,93.34,57.2c-3.22,8.28-9,14.17-16.89,18.14a45.87,45.87,0,0,1-13.21,4,96.47,96.47,0,0,1-19.51.9c-1.07,0-2.14-.06-3.2-.08A4.75,4.75,0,0,0,39.88,80.31Zm.18-19.83c.26.06.37.11.48.12,3.52,0,7,.15,10.55.11a34.81,34.81,0,0,0,8.65-1.29,20.45,20.45,0,0,0,8.24-4,13.56,13.56,0,0,0,4.79-8A22,22,0,0,0,73,39.65c-.94-5.8-4-9.94-9.55-12.16a27.59,27.59,0,0,0-9.94-2c-4,0-8,0-12,0-.49,0-1,.12-1.51.18Z"/><path class="cls-1" d="M107,101.63V93.32c0-.24,0-.48,0-.71.06-1.14.53-1.43,1.52-.87a44.39,44.39,0,0,0,7.3,3.39,51,51,0,0,0,20.74,3,14.68,14.68,0,0,0,5.6-1.36,4.59,4.59,0,0,0,2.57-5.21,6.37,6.37,0,0,0-1.19-2.14A8.7,8.7,0,0,0,140.25,87c-3-1.33-5.91-2.67-8.93-3.84a64.26,64.26,0,0,1-13.56-7c-4.73-3.31-8.3-7.56-9.79-13.27A24.2,24.2,0,0,1,118.68,36a33.09,33.09,0,0,1,13.78-4.78,75,75,0,0,1,23,.95A61.24,61.24,0,0,1,161.59,34,2,2,0,0,1,163,35.94c0,.16,0,.32,0,.47,0,5.46,0,10.92,0,16.38,0,1.18-.4,1.67-1.91,1.56a2.72,2.72,0,0,1-.88-.34A43,43,0,0,0,146.7,50a42.53,42.53,0,0,0-10.51-.48,23.81,23.81,0,0,0-3.83.76,4.56,4.56,0,0,0-3,2.36,4.49,4.49,0,0,0,.65,5.29,11.34,11.34,0,0,0,3.37,2.59,77.61,77.61,0,0,0,9.09,4,69.66,69.66,0,0,1,14.24,7c5.44,3.49,9.19,8.25,10.24,14.75,1.95,12.16-3.73,22.24-14.26,27.14a41,41,0,0,1-14.19,3.54,72.54,72.54,0,0,1-22.61-1.69,41.69,41.69,0,0,1-7.28-2.49,2.46,2.46,0,0,1-1.66-2.57C107,107.32,107,104.47,107,101.63Z"/></svg>